<?xml version="1.0" encoding="UTF-8"?>
<svg width="1342px" height="937px" viewBox="0 0 1342 937" version="1.1" xmlns="http://www.w3.org/2000/svg" xmlns:xlink="http://www.w3.org/1999/xlink">
    <!-- Generator: Sketch 41.1 (35376) - http://www.bohemiancoding.com/sketch -->
    <title>testimonal_bg</title>
    <desc>Created with Sketch.</desc>
    <defs></defs>
    <g id="Page-1" stroke="none" stroke-width="1" fill="none" fill-rule="evenodd" opacity="0.5">
        <g id="Desktop-HD" transform="translate(-58.000000, -2770.000000)" stroke="#EB7076" stroke-width="2">
            <g id="Review-Section" transform="translate(-536.000000, 2740.000000)">
                <g id="testimonal_bg" transform="translate(595.000000, 23.000000)">
                    <path d="M88.0477932,61.5177755 C91.0765716,60.778313 94.4473387,60.0769357 97.5872909,60.0769357 C102.332263,60.0769357 106.286407,61.8741193 106.286407,69.0628539 C106.286407,90.6290577 95.7080427,95.4909667 91.0987355,95.4909667 C86.4894284,95.4909667 86.3458813,93.5045515 83.7477889,93.5045515 C81.1496966,93.5045515 80.1890598,95.4909667 76.3968423,95.4909667 C72.6046248,95.4909667 62,88.8420631 62,69.0628539 C62,62.5929928 67.5364925,60.0769357 71.8853586,60.0769357 C75.6434346,60.0769357 78.7559184,61.1622916 81.8696974,62.0750084 L79.6782511,54.5665012 C79.5236003,54.0366245 79.8015907,53.4097997 80.3070708,53.1803783 C80.3070708,53.1803783 84.9340319,50.7315807 86.120275,52.8882011 C86.8578183,54.2290739 87.5953617,58.4878406 88.0477932,61.5177755 Z" id="Logo"></path>
                    <path d="M581.047793,691.517775 C584.076572,690.778313 587.447339,690.076936 590.587291,690.076936 C595.332263,690.076936 599.286407,691.874119 599.286407,699.062854 C599.286407,720.629058 588.708043,725.490967 584.098736,725.490967 C579.489428,725.490967 579.345881,723.504552 576.747789,723.504552 C574.149697,723.504552 573.18906,725.490967 569.396842,725.490967 C565.604625,725.490967 555,718.842063 555,699.062854 C555,692.592993 560.536492,690.076936 564.885359,690.076936 C568.643435,690.076936 571.755918,691.162292 574.869697,692.075008 L572.678251,684.566501 C572.5236,684.036624 572.801591,683.4098 573.307071,683.180378 C573.307071,683.180378 577.934032,680.731581 579.120275,682.888201 C579.857818,684.229074 580.595362,688.487841 581.047793,691.517775 Z" id="Logo-Copy-12"></path>
                    <path d="M811.047793,820.517775 C814.076572,819.778313 817.447339,819.076936 820.587291,819.076936 C825.332263,819.076936 829.286407,820.874119 829.286407,828.062854 C829.286407,849.629058 818.708043,854.490967 814.098736,854.490967 C809.489428,854.490967 809.345881,852.504552 806.747789,852.504552 C804.149697,852.504552 803.18906,854.490967 799.396842,854.490967 C795.604625,854.490967 785,847.842063 785,828.062854 C785,821.592993 790.536492,819.076936 794.885359,819.076936 C798.643435,819.076936 801.755918,820.162292 804.869697,821.075008 L802.678251,813.566501 C802.5236,813.036624 802.801591,812.4098 803.307071,812.180378 C803.307071,812.180378 807.934032,809.731581 809.120275,811.888201 C809.857818,813.229074 810.595362,817.487841 811.047793,820.517775 Z" id="Logo-Copy-22"></path>
                    <path d="M251.047793,431.517775 C254.076572,430.778313 257.447339,430.076936 260.587291,430.076936 C265.332263,430.076936 269.286407,431.874119 269.286407,439.062854 C269.286407,460.629058 258.708043,465.490967 254.098736,465.490967 C249.489428,465.490967 249.345881,463.504552 246.747789,463.504552 C244.149697,463.504552 243.18906,465.490967 239.396842,465.490967 C235.604625,465.490967 225,458.842063 225,439.062854 C225,432.592993 230.536492,430.076936 234.885359,430.076936 C238.643435,430.076936 241.755918,431.162292 244.869697,432.075008 L242.678251,424.566501 C242.5236,424.036624 242.801591,423.4098 243.307071,423.180378 C243.307071,423.180378 247.934032,420.731581 249.120275,422.888201 C249.857818,424.229074 250.595362,428.487841 251.047793,431.517775 Z" id="Logo-Copy-4"></path>
                    <path d="M26.0477932,908.517775 C29.0765716,907.778313 32.4473387,907.076936 35.5872909,907.076936 C40.3322631,907.076936 44.2864065,908.874119 44.2864065,916.062854 C44.2864065,937.629058 33.7080427,942.490967 29.0987355,942.490967 C24.4894284,942.490967 24.3458813,940.504552 21.7477889,940.504552 C19.1496966,940.504552 18.1890598,942.490967 14.3968423,942.490967 C10.6046248,942.490967 1.50868704e-15,935.842063 0,916.062854 C0,909.592993 5.53649246,907.076936 9.8853586,907.076936 C13.6434346,907.076936 16.7559184,908.162292 19.8696974,909.075008 L17.6782511,901.566501 C17.5236003,901.036624 17.8015907,900.4098 18.3070708,900.180378 C18.3070708,900.180378 22.9340319,897.731581 24.120275,899.888201 C24.8578183,901.229074 25.5953617,905.487841 26.0477932,908.517775 Z" id="Logo-Copy-24"></path>
                    <path d="M1212.04779,18.5177755 C1215.07657,17.778313 1218.44734,17.0769357 1221.58729,17.0769357 C1226.33226,17.0769357 1230.28641,18.8741193 1230.28641,26.0628539 C1230.28641,47.6290577 1219.70804,52.4909667 1215.09874,52.4909667 C1210.48943,52.4909667 1210.34588,50.5045515 1207.74779,50.5045515 C1205.1497,50.5045515 1204.18906,52.4909667 1200.39684,52.4909667 C1196.60462,52.4909667 1186,45.8420631 1186,26.0628539 C1186,19.5929928 1191.53649,17.0769357 1195.88536,17.0769357 C1199.64343,17.0769357 1202.75592,18.1622916 1205.8697,19.0750084 L1203.67825,11.5665012 C1203.5236,11.0366245 1203.80159,10.4097997 1204.30707,10.1803783 C1204.30707,10.1803783 1208.93403,7.73158069 1210.12027,9.88820106 C1210.85782,11.2290739 1211.59536,15.4878406 1212.04779,18.5177755 Z" id="Logo-Copy-18"></path>
                    <path d="M643.047793,506.517775 C646.076572,505.778313 649.447339,505.076936 652.587291,505.076936 C657.332263,505.076936 661.286407,506.874119 661.286407,514.062854 C661.286407,535.629058 650.708043,540.490967 646.098736,540.490967 C641.489428,540.490967 641.345881,538.504552 638.747789,538.504552 C636.149697,538.504552 635.18906,540.490967 631.396842,540.490967 C627.604625,540.490967 617,533.842063 617,514.062854 C617,507.592993 622.536492,505.076936 626.885359,505.076936 C630.643435,505.076936 633.755918,506.162292 636.869697,507.075008 L634.678251,499.566501 C634.5236,499.036624 634.801591,498.4098 635.307071,498.180378 C635.307071,498.180378 639.934032,495.731581 641.120275,497.888201 C641.857818,499.229074 642.595362,503.487841 643.047793,506.517775 Z" id="Logo-Copy-10"></path>
                    <path d="M1029.04779,193.517775 C1032.07657,192.778313 1035.44734,192.076936 1038.58729,192.076936 C1043.33226,192.076936 1047.28641,193.874119 1047.28641,201.062854 C1047.28641,222.629058 1036.70804,227.490967 1032.09874,227.490967 C1027.48943,227.490967 1027.34588,225.504552 1024.74779,225.504552 C1022.1497,225.504552 1021.18906,227.490967 1017.39684,227.490967 C1013.60462,227.490967 1003,220.842063 1003,201.062854 C1003,194.592993 1008.53649,192.076936 1012.88536,192.076936 C1016.64343,192.076936 1019.75592,193.162292 1022.8697,194.075008 L1020.67825,186.566501 C1020.5236,186.036624 1020.80159,185.4098 1021.30707,185.180378 C1021.30707,185.180378 1025.93403,182.731581 1027.12027,184.888201 C1027.85782,186.229074 1028.59536,190.487841 1029.04779,193.517775 Z" id="Logo-Copy-16"></path>
                    <path d="M383.795973,52.7126972 C386.824752,51.9732347 390.195519,51.2718574 393.335471,51.2718574 C398.080443,51.2718574 402.034587,53.069041 402.034587,60.2577756 C402.034587,81.8239794 391.456223,86.6858884 386.846916,86.6858884 C382.237609,86.6858884 382.094061,84.6994732 379.495969,84.6994732 C376.897877,84.6994732 375.93724,86.6858884 372.145022,86.6858884 C368.352805,86.6858884 357.74818,80.0369848 357.74818,60.2577756 C357.74818,53.7879145 363.284673,51.2718574 367.633539,51.2718574 C371.391615,51.2718574 374.504098,52.3572133 377.617878,53.2699301 L375.426431,45.7614229 C375.27178,45.2315462 375.549771,44.6047214 376.055251,44.3753 C376.055251,44.3753 380.682212,41.9265024 381.868455,44.0831228 C382.605998,45.4239956 383.343542,49.6827624 383.795973,52.7126972 Z" id="Logo-Copy" transform="translate(379.891383, 64.940405) rotate(50.000000) translate(-379.891383, -64.940405) "></path>
                    <path d="M478.795973,339.712697 C481.824752,338.973235 485.195519,338.271857 488.335471,338.271857 C493.080443,338.271857 497.034587,340.069041 497.034587,347.257776 C497.034587,368.823979 486.456223,373.685888 481.846916,373.685888 C477.237609,373.685888 477.094061,371.699473 474.495969,371.699473 C471.897877,371.699473 470.93724,373.685888 467.145022,373.685888 C463.352805,373.685888 452.74818,367.036985 452.74818,347.257776 C452.74818,340.787914 458.284673,338.271857 462.633539,338.271857 C466.391615,338.271857 469.504098,339.357213 472.617878,340.26993 L470.426431,332.761423 C470.27178,332.231546 470.549771,331.604721 471.055251,331.3753 C471.055251,331.3753 475.682212,328.926502 476.868455,331.083123 C477.605998,332.423996 478.343542,336.682762 478.795973,339.712697 Z" id="Logo-Copy-5" transform="translate(474.891383, 351.940405) rotate(50.000000) translate(-474.891383, -351.940405) "></path>
                    <path d="M819.795973,18.7126972 C822.824752,17.9732347 826.195519,17.2718574 829.335471,17.2718574 C834.080443,17.2718574 838.034587,19.069041 838.034587,26.2577756 C838.034587,47.8239794 827.456223,52.6858884 822.846916,52.6858884 C818.237609,52.6858884 818.094061,50.6994732 815.495969,50.6994732 C812.897877,50.6994732 811.93724,52.6858884 808.145022,52.6858884 C804.352805,52.6858884 793.74818,46.0369848 793.74818,26.2577756 C793.74818,19.7879145 799.284673,17.2718574 803.633539,17.2718574 C807.391615,17.2718574 810.504098,18.3572133 813.617878,19.2699301 L811.426431,11.7614229 C811.27178,11.2315462 811.549771,10.6047214 812.055251,10.3753 C812.055251,10.3753 816.682212,7.9265024 817.868455,10.0831228 C818.605998,11.4239956 819.343542,15.6827624 819.795973,18.7126972 Z" id="Logo-Copy-14" transform="translate(815.891383, 30.940405) rotate(50.000000) translate(-815.891383, -30.940405) "></path>
                    <path d="M602.795973,162.712697 C605.824752,161.973235 609.195519,161.271857 612.335471,161.271857 C617.080443,161.271857 621.034587,163.069041 621.034587,170.257776 C621.034587,191.823979 610.456223,196.685888 605.846916,196.685888 C601.237609,196.685888 601.094061,194.699473 598.495969,194.699473 C595.897877,194.699473 594.93724,196.685888 591.145022,196.685888 C587.352805,196.685888 576.74818,190.036985 576.74818,170.257776 C576.74818,163.787914 582.284673,161.271857 586.633539,161.271857 C590.391615,161.271857 593.504098,162.357213 596.617878,163.26993 L594.426431,155.761423 C594.27178,155.231546 594.549771,154.604721 595.055251,154.3753 C595.055251,154.3753 599.682212,151.926502 600.868455,154.083123 C601.605998,155.423996 602.343542,159.682762 602.795973,162.712697 Z" id="Logo-Copy-8" transform="translate(598.891383, 174.940405) rotate(50.000000) translate(-598.891383, -174.940405) "></path>
                    <path d="M1265.08238,255.712697 C1268.11116,254.973235 1271.48193,254.271857 1274.62188,254.271857 C1279.36685,254.271857 1283.32099,256.069041 1283.32099,263.257776 C1283.32099,284.823979 1272.74263,289.685888 1268.13332,289.685888 C1263.52402,289.685888 1263.38047,287.699473 1260.78238,287.699473 C1258.18428,287.699473 1257.22365,289.685888 1253.43143,289.685888 C1249.63921,289.685888 1239.03459,283.036985 1239.03459,263.257776 C1239.03459,256.787914 1244.57108,254.271857 1248.91995,254.271857 C1252.67802,254.271857 1255.7905,255.357213 1258.90428,256.26993 L1256.71284,248.761423 C1256.55819,248.231546 1256.83618,247.604721 1257.34166,247.3753 C1257.34166,247.3753 1261.96862,244.926502 1263.15486,247.083123 C1263.8924,248.423996 1264.62995,252.682762 1265.08238,255.712697 Z" id="Logo-Copy-17" transform="translate(1261.177790, 267.940405) rotate(50.000000) translate(-1261.177790, -267.940405) "></path>
                    <path d="M251.650073,224.915495 C254.678852,224.176033 258.049619,223.474656 261.189571,223.474656 C265.934543,223.474656 269.888687,225.271839 269.888687,232.460574 C269.888687,254.026778 259.310323,258.888687 254.701016,258.888687 C250.091708,258.888687 249.948161,256.902271 247.350069,256.902271 C244.751977,256.902271 243.79134,258.888687 239.999122,258.888687 C236.206905,258.888687 225.60228,252.239783 225.60228,232.460574 C225.60228,225.990713 231.138773,223.474656 235.487639,223.474656 C239.245715,223.474656 242.358198,224.560012 245.471978,225.472728 L243.280531,217.964221 C243.12588,217.434344 243.403871,216.80752 243.909351,216.578098 C243.909351,216.578098 248.536312,214.129301 249.722555,216.285921 C250.460098,217.626794 251.197642,221.885561 251.650073,224.915495 Z" id="Logo-Copy-2" transform="translate(247.745483, 237.143203) scale(-1, -1) rotate(90.000000) translate(-247.745483, -237.143203) "></path>
                    <path d="M905.650073,629.915495 C908.678852,629.176033 912.049619,628.474656 915.189571,628.474656 C919.934543,628.474656 923.888687,630.271839 923.888687,637.460574 C923.888687,659.026778 913.310323,663.888687 908.701016,663.888687 C904.091708,663.888687 903.948161,661.902271 901.350069,661.902271 C898.751977,661.902271 897.79134,663.888687 893.999122,663.888687 C890.206905,663.888687 879.60228,657.239783 879.60228,637.460574 C879.60228,630.990713 885.138773,628.474656 889.487639,628.474656 C893.245715,628.474656 896.358198,629.560012 899.471978,630.472728 L897.280531,622.964221 C897.12588,622.434344 897.403871,621.80752 897.909351,621.578098 C897.909351,621.578098 902.536312,619.129301 903.722555,621.285921 C904.460098,622.626794 905.197642,626.885561 905.650073,629.915495 Z" id="Logo-Copy-15" transform="translate(901.745483, 642.143203) scale(-1, -1) rotate(90.000000) translate(-901.745483, -642.143203) "></path>
                    <path d="M1190.65007,885.915495 C1193.67885,885.176033 1197.04962,884.474656 1200.18957,884.474656 C1204.93454,884.474656 1208.88869,886.271839 1208.88869,893.460574 C1208.88869,915.026778 1198.31032,919.888687 1193.70102,919.888687 C1189.09171,919.888687 1188.94816,917.902271 1186.35007,917.902271 C1183.75198,917.902271 1182.79134,919.888687 1178.99912,919.888687 C1175.2069,919.888687 1164.60228,913.239783 1164.60228,893.460574 C1164.60228,886.990713 1170.13877,884.474656 1174.48764,884.474656 C1178.24571,884.474656 1181.3582,885.560012 1184.47198,886.472728 L1182.28053,878.964221 C1182.12588,878.434344 1182.40387,877.80752 1182.90935,877.578098 C1182.90935,877.578098 1187.53631,875.129301 1188.72256,877.285921 C1189.4601,878.626794 1190.19764,882.885561 1190.65007,885.915495 Z" id="Logo-Copy-23" transform="translate(1186.745483, 898.143203) scale(-1, -1) rotate(90.000000) translate(-1186.745483, -898.143203) "></path>
                    <path d="M1168.65007,527.915495 C1171.67885,527.176033 1175.04962,526.474656 1178.18957,526.474656 C1182.93454,526.474656 1186.88869,528.271839 1186.88869,535.460574 C1186.88869,557.026778 1176.31032,561.888687 1171.70102,561.888687 C1167.09171,561.888687 1166.94816,559.902271 1164.35007,559.902271 C1161.75198,559.902271 1160.79134,561.888687 1156.99912,561.888687 C1153.2069,561.888687 1142.60228,555.239783 1142.60228,535.460574 C1142.60228,528.990713 1148.13877,526.474656 1152.48764,526.474656 C1156.24571,526.474656 1159.3582,527.560012 1162.47198,528.472728 L1160.28053,520.964221 C1160.12588,520.434344 1160.40387,519.80752 1160.90935,519.578098 C1160.90935,519.578098 1165.53631,517.129301 1166.72256,519.285921 C1167.4601,520.626794 1168.19764,524.885561 1168.65007,527.915495 Z" id="Logo-Copy-20" transform="translate(1164.745483, 540.143203) scale(1, -1) rotate(90.000000) translate(-1164.745483, -540.143203) "></path>
                    <path d="M25.6500733,585.915495 C28.6788517,585.176033 32.0496188,584.474656 35.189571,584.474656 C39.9345432,584.474656 43.8886866,586.271839 43.8886866,593.460574 C43.8886866,615.026778 33.3103228,619.888687 28.7010156,619.888687 C24.0917085,619.888687 23.9481614,617.902271 21.350069,617.902271 C18.7519767,617.902271 17.7913399,619.888687 13.9991224,619.888687 C10.2069049,619.888687 -0.397719901,613.239783 -0.397719901,593.460574 C-0.397719901,586.990713 5.13877256,584.474656 9.48763869,584.474656 C13.2457147,584.474656 16.3581985,585.560012 19.4719775,586.472728 L17.2805312,578.964221 C17.1258804,578.434344 17.4038708,577.80752 17.9093509,577.578098 C17.9093509,577.578098 22.536312,575.129301 23.7225551,577.285921 C24.4600984,578.626794 25.1976418,582.885561 25.6500733,585.915495 Z" id="Logo-Copy-9" transform="translate(21.745483, 598.143203) scale(-1, -1) rotate(90.000000) translate(-21.745483, -598.143203) "></path>
                    <path d="M392.650073,550.915495 C395.678852,550.176033 399.049619,549.474656 402.189571,549.474656 C406.934543,549.474656 410.888687,551.271839 410.888687,558.460574 C410.888687,580.026778 400.310323,584.888687 395.701016,584.888687 C391.091708,584.888687 390.948161,582.902271 388.350069,582.902271 C385.751977,582.902271 384.79134,584.888687 380.999122,584.888687 C377.206905,584.888687 366.60228,578.239783 366.60228,558.460574 C366.60228,551.990713 372.138773,549.474656 376.487639,549.474656 C380.245715,549.474656 383.358198,550.560012 386.471978,551.472728 L384.280531,543.964221 C384.12588,543.434344 384.403871,542.80752 384.909351,542.578098 C384.909351,542.578098 389.536312,540.129301 390.722555,542.285921 C391.460098,543.626794 392.197642,547.885561 392.650073,550.915495 Z" id="Logo-Copy-6" transform="translate(388.745483, 563.143203) scale(-1, -1) rotate(90.000000) translate(-388.745483, -563.143203) "></path>
                    <path d="M405.650073,841.915495 C408.678852,841.176033 412.049619,840.474656 415.189571,840.474656 C419.934543,840.474656 423.888687,842.271839 423.888687,849.460574 C423.888687,871.026778 413.310323,875.888687 408.701016,875.888687 C404.091708,875.888687 403.948161,873.902271 401.350069,873.902271 C398.751977,873.902271 397.79134,875.888687 393.999122,875.888687 C390.206905,875.888687 379.60228,869.239783 379.60228,849.460574 C379.60228,842.990713 385.138773,840.474656 389.487639,840.474656 C393.245715,840.474656 396.358198,841.560012 399.471978,842.472728 L397.280531,834.964221 C397.12588,834.434344 397.403871,833.80752 397.909351,833.578098 C397.909351,833.578098 402.536312,831.129301 403.722555,833.285921 C404.460098,834.626794 405.197642,838.885561 405.650073,841.915495 Z" id="Logo-Copy-21" transform="translate(401.745483, 854.143203) scale(-1, -1) rotate(90.000000) translate(-401.745483, -854.143203) "></path>
                    <path d="M905.650073,409.915495 C908.678852,409.176033 912.049619,408.474656 915.189571,408.474656 C919.934543,408.474656 923.888687,410.271839 923.888687,417.460574 C923.888687,439.026778 913.310323,443.888687 908.701016,443.888687 C904.091708,443.888687 903.948161,441.902271 901.350069,441.902271 C898.751977,441.902271 897.79134,443.888687 893.999122,443.888687 C890.206905,443.888687 879.60228,437.239783 879.60228,417.460574 C879.60228,410.990713 885.138773,408.474656 889.487639,408.474656 C893.245715,408.474656 896.358198,409.560012 899.471978,410.472728 L897.280531,402.964221 C897.12588,402.434344 897.403871,401.80752 897.909351,401.578098 C897.909351,401.578098 902.536312,399.129301 903.722555,401.285921 C904.460098,402.626794 905.197642,406.885561 905.650073,409.915495 Z" id="Logo-Copy-13" transform="translate(901.745483, 422.143203) scale(-1, -1) rotate(90.000000) translate(-901.745483, -422.143203) "></path>
                    <path d="M34.844995,356.663676 C37.8737734,355.924213 41.2445406,355.222836 44.3844928,355.222836 C49.1294649,355.222836 53.0836083,357.020019 53.0836083,364.208754 C53.0836083,385.774958 42.5052445,390.636867 37.8959373,390.636867 C33.2866302,390.636867 33.1430831,388.650452 30.5449907,388.650452 C27.9468984,388.650452 26.9862616,390.636867 23.1940441,390.636867 C19.4018266,390.636867 8.79720182,383.987963 8.79720182,364.208754 C8.79720182,357.738893 14.3336943,355.222836 18.6825604,355.222836 C22.4406364,355.222836 25.5531202,356.308192 28.6668993,357.220908 L26.4754529,349.712401 C26.3208022,349.182525 26.5987925,348.5557 27.1042726,348.326278 C27.1042726,348.326278 31.7312338,345.877481 32.9174768,348.034101 C33.6550201,349.374974 34.3925635,353.633741 34.844995,356.663676 Z" id="Logo-Copy-3" transform="translate(30.940405, 368.891383) scale(1, -1) rotate(-40.000000) translate(-30.940405, -368.891383) "></path>
                    <path d="M140.844995,722.663676 C143.873773,721.924213 147.244541,721.222836 150.384493,721.222836 C155.129465,721.222836 159.083608,723.020019 159.083608,730.208754 C159.083608,751.774958 148.505245,756.636867 143.895937,756.636867 C139.28663,756.636867 139.143083,754.650452 136.544991,754.650452 C133.946898,754.650452 132.986262,756.636867 129.194044,756.636867 C125.401827,756.636867 114.797202,749.987963 114.797202,730.208754 C114.797202,723.738893 120.333694,721.222836 124.68256,721.222836 C128.440636,721.222836 131.55312,722.308192 134.666899,723.220908 L132.475453,715.712401 C132.320802,715.182525 132.598793,714.5557 133.104273,714.326278 C133.104273,714.326278 137.731234,711.877481 138.917477,714.034101 C139.65502,715.374974 140.392563,719.633741 140.844995,722.663676 Z" id="Logo-Copy-7" transform="translate(136.940405, 734.891383) scale(1, -1) rotate(-40.000000) translate(-136.940405, -734.891383) "></path>
                    <path d="M1320.84499,700.663676 C1323.87377,699.924213 1327.24454,699.222836 1330.38449,699.222836 C1335.12946,699.222836 1339.08361,701.020019 1339.08361,708.208754 C1339.08361,729.774958 1328.50524,734.636867 1323.89594,734.636867 C1319.28663,734.636867 1319.14308,732.650452 1316.54499,732.650452 C1313.9469,732.650452 1312.98626,734.636867 1309.19404,734.636867 C1305.40183,734.636867 1294.7972,727.987963 1294.7972,708.208754 C1294.7972,701.738893 1300.33369,699.222836 1304.68256,699.222836 C1308.44064,699.222836 1311.55312,700.308192 1314.6669,701.220908 L1312.47545,693.712401 C1312.3208,693.182525 1312.59879,692.5557 1313.10427,692.326278 C1313.10427,692.326278 1317.73123,689.877481 1318.91748,692.034101 C1319.65502,693.374974 1320.39256,697.633741 1320.84499,700.663676 Z" id="Logo-Copy-19" transform="translate(1316.940405, 712.891383) scale(-1, -1) rotate(-40.000000) translate(-1316.940405, -712.891383) "></path>
                    <path d="M757.844995,277.663676 C760.873773,276.924213 764.244541,276.222836 767.384493,276.222836 C772.129465,276.222836 776.083608,278.020019 776.083608,285.208754 C776.083608,306.774958 765.505245,311.636867 760.895937,311.636867 C756.28663,311.636867 756.143083,309.650452 753.544991,309.650452 C750.946898,309.650452 749.986262,311.636867 746.194044,311.636867 C742.401827,311.636867 731.797202,304.987963 731.797202,285.208754 C731.797202,278.738893 737.333694,276.222836 741.68256,276.222836 C745.440636,276.222836 748.55312,277.308192 751.666899,278.220908 L749.475453,270.712401 C749.320802,270.182525 749.598793,269.5557 750.104273,269.326278 C750.104273,269.326278 754.731234,266.877481 755.917477,269.034101 C756.65502,270.374974 757.392563,274.633741 757.844995,277.663676 Z" id="Logo-Copy-11" transform="translate(753.940405, 289.891383) scale(1, -1) rotate(-40.000000) translate(-753.940405, -289.891383) "></path>
                </g>
            </g>
        </g>
    </g>
</svg>